<svg width="180" height="180" viewBox="0 0 180 180" fill="none" xmlns="http://www.w3.org/2000/svg">
  <defs>
    <linearGradient id="bg" x1="0" y1="0" x2="180" y2="180" gradientUnits="userSpaceOnUse">
      <stop stop-color="#0d1f5c"/>
      <stop offset="1" stop-color="#1a3a9f"/>
    </linearGradient>
    <linearGradient id="feather" x1="140" y1="30" x2="55" y2="155" gradientUnits="userSpaceOnUse">
      <stop stop-color="#93c5fd"/>
      <stop offset="1" stop-color="#2563eb"/>
    </linearGradient>
  </defs>
  <rect width="180" height="180" rx="38" fill="url(#bg)"/>
  <path d="M138 30 C158 44 162 82 146 112 C132 138 106 155 74 158 L84 140 C104 128 126 106 130 80 C134 54 120 40 102 36 Z" fill="url(#feather)"/>
  <path d="M138 30 C128 27 114 31 102 36 C118 38 132 50 132 68 Z" fill="#bfdbfe" opacity="0.75"/>
  <line x1="118" y1="48" x2="50" y2="160" stroke="#dbeafe" stroke-width="3" stroke-linecap="round" opacity="0.35"/>
  <line x1="126" y1="72" x2="88" y2="128" stroke="#dbeafe" stroke-width="1.5" stroke-linecap="round" opacity="0.25"/>
  <line x1="132" y1="90" x2="96" y2="142" stroke="#dbeafe" stroke-width="1.5" stroke-linecap="round" opacity="0.2"/>
  <path d="M50 160 L34 172 L54 164 Z" fill="#60a5fa"/>
</svg>
