<svg width="512" height="512" viewBox="0 0 512 512" fill="none" xmlns="http://www.w3.org/2000/svg">
  <defs><linearGradient id="lsg" x1="120" y1="80" x2="392" y2="432" gradientUnits="userSpaceOnUse"><stop stop-color="#10b981"/><stop offset="1" stop-color="#0d9488"/></linearGradient></defs>
  <rect width="512" height="512" rx="108" fill="url(#lsg)"/>
  <path d="M144 264a112 112 0 0 1 224 0V388c0 16-19 24-30 12l-12-13a11 11 0 0 0-16 1l-11 15c-6 8-18 8-24 0l-11-15a11 11 0 0 0-17 0l-11 15c-6 8-18 8-24 0l-11-15a11 11 0 0 0-16-1l-12 13c-11 12-30 4-30-12Z" fill="#ffffff"/><circle cx="224" cy="252" r="20" fill="#0d9488"/><circle cx="288" cy="252" r="20" fill="#0d9488"/>
</svg>
